<?xml version="1.0" encoding="UTF-8"?>
<svg xmlns="http://www.w3.org/2000/svg" viewBox="0 0 200 200">
  <rect width="200" height="200" fill="#ffffff"/>
  <g transform="translate(50, 68) scale(1.0)">
    <path d="M97.37,10.74c-.13-1.2-2.55-.93-3.49-.87-1.69.12-1.85.28-1.72,2.05-3.98-4.2-10.41-2.93-13.35,1.8-1.81,2.91-2.15,7.05-.94,10.25,2.17,5.71,9.96,8.09,14.29,3.29-.14,1.4.04,2.78-.79,4.01-1.55,2.28-5.21,2.61-7.43,1.21-.59-.37-1.02-.99-1.7-1.22-2.58.5-6.48.36-3.31,3.8,3.73,4.04,12.34,4.37,16.05.19,1.87-2.11,2.31-4.94,2.43-7.67.25-5.54-.17-11.29-.04-16.85ZM86.98,24.96c-6.03-.41-6.01-9.86-.35-10.57,7.78-.98,7.52,11.06.35,10.57Z" fill="#000000"/>
    <path d="M22.42,9.89c-.63-.1-2.79-.09-3.41.02-.17.03-.57.2-.65.38l-.09,1.51c-4.04-4.16-10.92-2.62-13.96,1.95-2.96,4.47-2.37,11.79,2.16,15.03,3.52,2.52,8.88,2.68,11.74-.87.17.51-.17,1.81.54,2.02.31.09,4.02.06,4.25-.04.12-.05.23-.21.32-.32l.04-18.95c-.08-.4-.56-.66-.94-.72ZM13.98,25.59c-7.83.92-8.01-10.42-1.48-11.2,7.24-.87,7.64,10.48,1.48,11.2Z" fill="#000000"/>
    <path d="M54.96,20.81c.36-6.65-4.48-11.93-11.27-11.4-4.97.39-8.91,4.24-9.3,9.23-1.21,15.32,19.85,15.78,20.58,2.17ZM43.94,14.39c7.51-.86,7.58,11.9.22,11.21-6.05-.56-5.92-10.56-.22-11.21Z" fill="#000000"/>
    <path d="M75.03,16.08c-.47-5.81-6.5-8.37-11.36-5.62l-1.55,1.33c.19-.5.09-1.42-.39-1.71-.48-.29-3.22-.28-3.88-.19-.46.06-.82.24-.94.72l.04,18.96c.09.12.22.23.35.29.38.16,3.7.18,4.25.1.66-.09.66-.76.7-1.34.25-3.29-.29-6.96,0-10.24.43-5.05,6.95-5.28,7.51-1.11.48,3.59-.31,8.06.03,11.73.05.52.13.88.7.96.44.06,4.06.04,4.29-.07.66-.31.26-1.41.25-1.91-.08-3.83.31-8.15,0-11.89Z" fill="#000000"/>
    <path d="M27.16,29.95c.57.11,3.6.09,4.21,0,.52-.08.73-.43.72-.94l-.02-25.94c-.07-.48-.19-.75-.7-.83-.51-.08-3.92-.09-4.31.02-.25.07-.49.4-.48.67v26.33c.08.32.24.64.58.71Z" fill="#000000"/>
  </g>
  <text x="100" y="128" font-family="Arial, Helvetica, sans-serif" font-size="13" font-weight="700" letter-spacing="2" fill="#000000" text-anchor="middle">CARGO BIKES</text>
</svg>
